# Blender v2.66 (sub 1) OBJ File: ''
# www.blender.org
v 2.035889 1.576828 -0.541192
v 2.423866 1.568572 -0.115254
v 2.831412 1.726441 1.741218
v -0.000000 4.801744 -4.648617
v 2.296057 2.155935 -5.435544
v 2.233196 1.679153 3.866631
v 2.571847 1.707914 1.989524
v 2.613573 1.917033 1.986541
v 2.444644 1.808447 -0.380277
v 3.077259 4.322198 -3.220498
v 4.222278 2.140552 2.176633
v 3.040837 4.162272 3.678203
v 0.000000 2.049081 5.983969
v 2.365510 1.784444 3.764531
v 1.603242 1.719372 3.101821
v 0.000000 6.164623 0.598761
v -0.015784 1.097095 6.231098
v 1.100587 1.350086 5.682036
v 1.201422 1.080263 7.259077
v -1.759256 1.650571 3.680552
v 0.000000 4.742277 4.206044
v -2.088070 1.713706 -0.461195
v -2.571847 1.707914 1.989524
v -2.667980 1.734297 1.586115
v -2.947366 2.108980 -4.773651
v -2.613573 1.917033 1.986541
v -2.444644 1.808447 -0.380277
v -3.077259 4.322198 -3.220498
v -4.222278 2.140552 2.176633
v -3.040837 4.162272 3.678203
v -1.201422 1.080262 7.259077
vt 0.673813 0.685388
vt 0.684949 0.075598
vt 0.680116 0.033669
vt 0.678729 0.696569
vt 0.683214 0.664945
vt 0.692630 0.467938
vt 0.711106 0.805670
vt 0.896188 0.750113
vt 0.868025 0.501408
vt 0.733250 0.612751
vt 0.679056 0.373370
vt 0.673384 0.361316
vt 0.691797 0.067672
vt 0.645091 0.491824
vt 0.842441 0.425268
vt 0.686846 0.926863
vt 0.678950 0.042179
vt 0.640631 0.777433
vt 0.689166 0.467053
vt 0.660687 0.723405
vt 0.893622 0.285678
vt 0.685004 0.060218
vt 0.680636 0.625858
vt 0.712429 0.732224
vt 0.641257 0.778121
vt 0.684482 0.261736
vn 0.362102 -0.875729 0.319224
vn 0.142582 -0.988891 -0.041261
vn 0.508194 -0.859066 -0.060579
vn 0.176031 -0.984313 -0.009522
vn -0.724815 -0.121494 -0.678121
vn 0.058138 -0.998291 -0.000366
vn 0.468795 -0.402448 -0.786248
vn -0.023286 0.719596 -0.693960
vn 0.763451 0.545762 -0.345317
vn 0.906400 -0.389080 0.164312
vn -0.517533 -0.474990 -0.711692
vn 0.049104 -0.986328 -0.157231
vn 0.467452 -0.878658 -0.097110
vn 0.000000 0.998657 0.051241
vn 0.663228 0.553758 0.503433
vn -0.049226 0.615314 0.786706
vn 0.688772 -0.621632 0.372967
vn 0.512742 -0.238502 0.824732
vn -0.425275 -0.843135 0.328990
vn 0.038942 -0.907559 0.418073
vn 0.000000 0.775048 0.631886
vn 0.159551 0.985290 0.060884
vn -0.384198 -0.910245 0.154241
vn -0.148106 -0.987701 -0.049593
vn -0.591754 -0.437361 -0.677145
vn 0.632038 0.748375 -0.201025
vn -0.720634 0.600085 -0.347179
vn -0.888302 -0.392773 0.237953
vn -0.683584 0.467360 0.560594
vn -0.441237 -0.242561 0.863979
vn -0.251167 -0.967040 -0.041322
s 1
f 7/1/1 1/2/2 2/3/3
f 7/1/1 2/3/3 3/4/4
f 8/5/5 3/4/4 15/6/6
f 5/7/7 4/8/8 10/9/9
f 11/10/10 14/11/11 15/6/6
f 6/12/12 14/11/11 11/10/10
f 11/10/10 15/6/6 3/4/4
f 9/13/13 3/4/4 2/3/3
f 4/8/8 16/14/14 10/9/9
f 16/14/14 12/15/15 10/9/9
f 10/9/9 12/15/15 11/10/10
f 13/16/16 18/17/17 12/15/15
f 13/16/16 19/18/18 18/17/17
f 8/5/5 15/6/6 7/1/1
f 7/1/1 15/6/6 20/19/19
f 1/2/2 7/1/1 20/19/19
f 19/18/18 17/20/20 18/17/17
f 19/18/18 13/16/16 17/20/20
f 11/10/10 5/7/7 10/9/9
f 16/14/14 21/21/21 12/15/15
f 15/6/6 6/12/12 20/19/19
f 18/17/17 11/10/10 12/15/15
f 1/2/2 5/7/7 9/13/13
f 20/19/19 6/12/12 18/17/17
f 6/12/12 11/10/10 18/17/17
f 9/13/13 5/7/7 11/10/10
f 3/4/4 9/13/13 11/10/10
f 21/21/21 13/16/16 12/15/15
f 22/22/22 23/1/23 24/23/24
f 25/24/25 4/8/8 5/7/7
f 24/23/24 26/5/26 20/19/19
f 4/8/8 25/24/25 28/9/27
f 20/19/19 29/10/28 24/23/24
f 16/14/14 4/8/8 28/9/27
f 30/15/29 16/14/14 28/9/27
f 30/15/29 28/9/27 29/10/28
f 20/19/19 26/5/26 23/1/23
f 25/24/25 23/1/23 22/22/22
f 23/1/23 25/24/25 20/19/19
f 20/19/19 25/24/25 1/2/2
f 5/7/7 1/2/2 25/24/25
f 13/16/16 31/25/30 17/20/20
f 25/24/25 29/10/28 28/9/27
f 21/21/21 16/14/14 30/15/29
f 25/24/25 22/22/22 27/13/31
f 25/24/25 27/13/31 29/10/28
f 27/13/31 24/23/24 29/10/28
f 13/16/16 21/21/21 30/15/29
f 20/26/19 13/16/16 30/15/29
f 17/20/20 20/26/19 18/17/17
f 31/25/30 13/16/16 20/26/19
f 17/20/20 31/25/30 20/26/19
f 29/10/28 20/26/19 30/15/29
